<?xml version="1.0" encoding="UTF-8"?>
<svg width="13px" height="14px" viewBox="0 0 13 14" version="1.1" xmlns="http://www.w3.org/2000/svg" xmlns:xlink="http://www.w3.org/1999/xlink">
    <title>down-arrow copy</title>
    <g id="Page-1"  >
        <g id="Desktop-(Card)" transform="translate(-516.000000, -289.000000)" >
            <g id="Group-6" transform="translate(428.000000, 154.000000)">
                <g id="Group" transform="translate(16.000000, 134.000000)">
                    <g id="down-arrow-copy" transform="translate(72.000000, 1.000000)">
                        <path d="M12.2275497,7.76096702 C12.1820052,7.65192943 12.0757255,7.58077755 11.957786,7.58077755 L8.75858504,7.58077755 L8.75858504,0.291577829 C8.75858504,0.130631897 8.62778141,0 8.4666239,0 L3.79538263,0 C3.63422512,0 3.50342149,0.130631897 3.50342149,0.291577829 L3.50342149,7.58080489 L0.291958509,7.58080489 C0.174019021,7.58080489 0.0677393658,7.65195676 0.0221948522,7.76042033 C-0.0227748808,7.86945792 0.00174908806,7.99484158 0.0852564863,8.07823934 L5.90969908,13.9142788 C5.96457693,13.9690846 6.03875099,14 6.1164011,14 C6.19405121,14 6.26822527,13.9690846 6.32310313,13.9148528 L12.1644881,8.07881337 C12.2479955,7.99538827 12.2730942,7.87003194 12.2275497,7.76096702 Z" id="Path"></path>
                    </g>
                </g>
            </g>
        </g>
    </g>
</svg>