<?xml version="1.0" encoding="UTF-8"?>
<svg width="18px" height="18px" viewBox="0 0 18 18" version="1.1" xmlns="http://www.w3.org/2000/svg" xmlns:xlink="http://www.w3.org/1999/xlink">
    <title>magnifying-glass</title>
    <g id="Page-1" stroke="none" stroke-width="1" fill="none" fill-rule="evenodd" opacity="0.4">
        <g id="Desktop-(Card)" transform="translate(-444.000000, -24.000000)" fill="#2B2B2B" fill-rule="nonzero">
            <g id="Search-Bar" transform="translate(428.000000, 12.000000)">
                <g id="magnifying-glass" transform="translate(16.000000, 12.000000)">
                    <path d="M13.2093615,11.6185548 C14.0951202,10.4089651 14.6249345,8.92320703 14.6249345,7.31252728 C14.6249345,3.28053845 11.3444152,0 7.31244981,0 C3.28048445,0 0,3.28053845 0,7.31252728 C0,11.3445161 3.28051936,14.6250546 7.31248473,14.6250546 C8.92315511,14.6250546 10.4090442,14.0951673 11.6186268,13.2094035 L16.4091955,18 L18,16.4091862 C18,16.4091513 13.2093615,11.6185548 13.2093615,11.6185548 L13.2093615,11.6185548 Z M7.31248473,12.3750327 C4.52086089,12.3750327 2.25000873,10.1041674 2.25000873,7.31252728 C2.25000873,4.5208872 4.52086089,2.25002182 7.31248473,2.25002182 C10.1041086,2.25002182 12.3749607,4.5208872 12.3749607,7.31252728 C12.3749607,10.1041674 10.1040736,12.3750327 7.31248473,12.3750327 Z" id="Shape"></path>
                </g>
            </g>
        </g>
    </g>
</svg>